<svg xmlns="http://www.w3.org/2000/svg" viewBox="0 0 747.27 623.64"><g id="Layer_2" data-name="Layer 2"><g id="Layer_1-2" data-name="Layer 1"><g id="Layer_2-2" data-name="Layer 2"><g id="Layer_1-2-2" data-name="Layer 1-2"><g id="Layer_2-2-2" data-name="Layer 2-2"><g id="Layer_1-2-2-2" data-name="Layer 1-2-2"><path d="M164.79,623.64c2.43-8.08,4.62-16.24,7.35-24.22,1.94-5.65,1.25-10.69-.76-16.2-1-2.69.68-6.3,1-9.51.43-4,1.43-7.35,5.3-9.78,2.55-1.6,1.38-4.87-.42-6.55-2.1-2-2.26-3.55-.91-5.83a4.83,4.83,0,0,0,.4-2.55c-.12-2.54.46-4.19,3-5.68,2.25-1.32,3.55-4.25,5.35-6.4,1.48-1.79,2.82-3,5-.36a11.9,11.9,0,0,0,5.64,3.7c1.41.4,4.11-.31,4.82-1.42,3.27-5.1,8.14-6.15,13.52-6.31s8.47-2.75,10.63-7.77c1.19-2.77,4.32-4.92,7-6.79,2.15-1.51,2.91-3,2.57-5.55-2.61-19.93-2.93-40-3-60,0-2.16-1.24-4.46-2.35-6.46-1.8-3.25-3-6.29-.22-9.62a3.39,3.39,0,0,0,.46-2.39c-1-8-2.16-16-3.13-23.95-.87-7.24-1.79-14.48-2.28-21.75-.43-6.45-.37-12.94-.37-19.41s0-13.22.39-19.81c.26-4.17,1.32-8.29,2-12.43a22.55,22.55,0,0,0,.7-5.11c-1.08-14.64,0-29.26.46-43.88a41.47,41.47,0,0,1,2.78-13C232.27,267.8,232,261,231.3,254a85.88,85.88,0,0,1,0-12.63c.1-1.94-.32-2.81-2.27-2.92-7.23-.44-14.45-1.12-21.68-1.28-2.91-.06-5.84,1-8.77,1.57-5.29,1-9-1.55-12.36-5.3a8.74,8.74,0,0,0-4.4-2.64c-6.34-1.34-12.14-3.49-16.68-8.45A12.5,12.5,0,0,1,162,210.5c.8-3.64,2-7.18,3-10.77s2.52-6.89,2.74-10.4c.25-4.1,3.32-6.26,5-9.36,3.25-6.16,6.53-12.32,10-18.34,6.22-10.64,12.91-21,18.86-31.81,4.19-7.61,7.52-15.7,11.18-23.61a54,54,0,0,0,3.44-8.41c.57-2.07-.18-3.48-3.08-2.87-5.34,1.13-10.76,2-16.18,2.62-4,.45-8.08.87-12,.23-1.68-.27-3.66-3.06-4.1-5-.31-1.35,1.45-4.16,2.91-4.74,9.55-3.79,19.61-5.73,29.78-7.1,3.49-.47,6.45-1.15,6.85-5.77.13-1.45,2.55-3.08,4.26-3.93a99.53,99.53,0,0,1,9.87-3.74,5.42,5.42,0,0,1,2.86-.5,13.55,13.55,0,0,0,12.18-2.11c1.22-.84,3.87.39,6.17.71.32-6.47,3.92-13.43-.51-20.79-1.32-2.18-.53-6.07.19-9,1.41-5.58,4.19-10.71,2.32-16.93-1.6-5.31,3.28-12.37,8.71-15C275.51-.53,285-.33,294.64.4c3.72.28,7.44.51,11.16.85,6.64.62,12,2.59,16,9,5.35,8.54,10.17,16.92,11.28,27.23.81,7.39-2.19,14-3.4,21.11-.92,5.25-1.87,10.49-2.61,15.77-.94,6.71,1.07,12.88,4.27,18.62,3.41,6.11,8.79,9,15.65,10.88,6.13,1.7,13.3,1,18.37,6.08a3.57,3.57,0,0,0,2,.88c5.59.77,11.28,1.07,16.76,2.33a35.25,35.25,0,0,1,10.36,4.64c7.14,4.47,14,9.36,21,14,5.8,3.86,10.21,9.36,15.68,13.48,8.3,6.24,17.23,11.66,26,17.29,7.53,4.84,15,9.75,22.83,14.13,8.59,4.83,17.17,9.4,27.07,11.8,11,2.67,21.45,7.87,32.3,11.49a239.63,239.63,0,0,0,27.92,8c10.66,2.19,21.57,3.21,32.37,4.7,2.81.39,4.79-.84,6.86-2.84,5.61-5.43,11.25-10.63,19.38-12.69,4.49-1.14,8.37-4.69,12.49-7.19,2-1.2,4-3.45,6.22-1s1.28,5.25-.72,7a114.23,114.23,0,0,1-10.35,7.7c-1.14.82-2.4,1.48-4.38,2.68,1.63.56,2.34.87,3.09,1.06a128.4,128.4,0,0,0,41.65,3.6c1.22-.08,3,1.58,3.69,2.87.43.83-.36,3-1.26,3.67-4,3.08-8.33,5.84-12.51,8.75a27.57,27.57,0,0,0-3.44,2.74c-2.47,2.43-4.77,4.54-8.59,5.37a10,10,0,0,0-7.43,6.26c-1.31,3.59-5.35,1.82-6.72.83-4-2.89-8.11-1.36-12.16-1.58-5.2-.3-10.41-.33-15.59-.76a11.94,11.94,0,0,0-6.89,1.57c-2.81,1.44-6.45,1.23-10.08,1.79-.29-4.7-2.68-5.39-6.1-5.63-24.21-1.7-48.39-3.72-72.13-9.13q-18.88-4.31-37.72-8.85a4.7,4.7,0,0,0-5.48,1.84c-4.83,6.19-9.68,12.37-14.84,18.27-5.31,6.08-7.15,6.3-13.52,1.58-3-2.23-5.87-2.72-9.58-2.73-5.1,0-10.18-1.72-15.32-2.37a55.44,55.44,0,0,0-9.29-.14c-2.55.12-3.69,1.59-3.41,4.27.69,6.67,2.05,13.4,1.7,20-1,18.77-2.65,37.51-9,55.45-1.19,3.37-2.12,6.83-3.22,10.24-.77,2.4-.75,4.42,1.28,6.45,4.14,4.16,5.67,9.58,6.19,15.24,1.25,13.39,2.52,26.78,3.38,40.19.25,3.88-.8,7.86-1.33,11.78q-1.69,12.54-3.52,25c-.5,3.44-1.18,6.86-1.73,10.3-.36,2.23.28,3.68,2.93,3.44,2.44-.21,3.66.8,3.67,3.42s.44,4.95.56,7.43-1.12,3-3.33,2.27c-5.37-1.72-5.75-1.73-6.5,3.72-1.28,9.23-2.08,18.53-3,27.81-.21,2.07,1.11,3.59,2.89,2.41,7-4.62,12.79-1.12,18.68,2.29s9.64,8.08,10.71,15c.65,4.23,2.9,5.08,6.87,3.37a3.74,3.74,0,0,1,1.76-.51c6,1.2,9.39-3.38,13.73-5.87,7-4,14.14-6,22.32-3.67,7.79,2.21,15,5.9,23.38,6.86,8.19.94,16.16,4.44,24,7.31a22.12,22.12,0,0,1,7.48,5.36c6.75,6.8,13.07,14,19.9,20.72,5.12,5,8,10.63,7.69,17.9a51.2,51.2,0,0,0,.33,8.58c.67,5.41,1.19,10.65,7.2,13.71,3.65,1.87,4.32,6.4,4.68,10.5a46.51,46.51,0,0,0,1.23,5.74l1.4.08c-.59.7-1.5,1.32-1.71,2.13-.36,1.32-.86,3.14-.25,4.07,3.77,5.76,3.63,11-.6,16.33-2.3,2.86-4.37,5.91-6.54,8.88Zm63.76-494.33c2.77-1.4,4.43-2.64,6.29-3.1,6-1.49,12.06-2.75,18.12-3.95a8.28,8.28,0,0,1,4.39.12c3.2,1.29,5.26,0,7.53-2.11,2.68-2.49,5.44-5,9.63-4.86,5,.17,8.08-3.71,7.57-8.74-.36-3.63-1.25-5.55-5.66-5-4.6.6-9.57.88-12.8-3.94-.31-.46-1.87-.52-2.57-.19-6,2.92-12,5.79-17.85,9.06a18.65,18.65,0,0,0-5.58,5.29,70.55,70.55,0,0,0-5.27,9c-1.3,2.49-2.32,5.11-3.8,8.42ZM471.31,501.63a12.34,12.34,0,0,0-15-.64c-2,1.54-4.68,2.46-6.35,4.3s-2.61,4.49-3.66,6.87c-.05.1,2.3,1.85,3,1.56,2.21-.92,4.12-2.51,6.22-3.73,3.9-2.27,7.13-5.83,12.16-6C468.83,504,469.89,502.61,471.31,501.63ZM400.22,515.5c3.71-1.14,6.94-2.06,10.12-3.15a11.45,11.45,0,0,0,2.55-1.7c-.66-.78-1.17-2-2-2.27a76.81,76.81,0,0,0-11.61-3.3c-1.56-.26-4.74,1.08-4.86,2-.29,2.24-1.41,5.32,1.78,6.85,2,1,3.11,2.25,2.64,4.7-.13.68.73,1.65,1.34,2.3a1.77,1.77,0,0,0,1.52-.53,4.79,4.79,0,0,0,.06-2.38A14.17,14.17,0,0,0,400.22,515.5Zm13.53-13.95c-.92-1.14-1.39-1.84-2-2.44-3.66-3.82-8.6-3.35-13.22-3.72-.71-.06-2.26,1.45-2.15,2a3.86,3.86,0,0,0,2.09,2.61c4.1,1.22,8.29,2.19,12.49,3,.74.16,1.67-.8,2.79-1.42Zm148,85.83c-.55-2.38-1-4.92-1.8-7.37-.24-.77-1.26-1.38-2.06-1.81-.25-.14-1.34.5-1.37.83-.31,4-.6,8-.58,12,0,.64,1.5,1.77,2.33,1.79a3.61,3.61,0,0,0,2.58-1.66c.59-1,.59-2.31.9-3.75ZM185.06,547c.6,3,.92,5.4,1.57,7.65a9.85,9.85,0,0,0,2,2.78c.82-.94,2-1.75,2.41-2.85a75.92,75.92,0,0,0,2.58-7.81,2.55,2.55,0,0,0-.27-1.67,22.66,22.66,0,0,0-5.7-.14c-1.08.22-1.93,1.56-2.59,2.07Z"/><path d="M23.48,623.64c-2.12-4.48-5.2-8.75-6.19-13.47C13.68,592.9,8.71,575.81,9,557.89c0-2.84-.72-5.68-1-8.53-.37-4.05-.48-8.13-.94-12.16-.4-3.48-1.14-6.92-1.8-10.8L0,528.7c.29-5-.16-9.48,1-13.56,1.84-6.73,4-13.55,7.33-19.63,2.42-4.43,6.87-7.76,10.46-11.54.94-1,2.41-1.62,3-2.75s.54-2.91-.09-3.56c-1.59-1.64-1.4-3.06.18-4,3.33-2.06,6.87-3.8,10.34-5.64,2.57-1.37,5.16-2.69,7.74-4,1.2-.62,2.37-1.77,3.57-1.79,4.18-.08,6-2.92,7-6.11.73-2.22,1.89-2.91,3.76-2.53,7.54,1.54,14.84-1.3,22.36-1,8.91.3,17.88-.94,26.8-.69A86.3,86.3,0,0,1,124,454.5c7.67,2.15,15.3,5.27,20.89,11.39,4,4.42,7.49,9.38,11.22,14.08.46.58.92,1.46,1.51,1.58,4.74,1,5.42,5.28,7.22,8.67a80.41,80.41,0,0,1,4.3,8.23c.86,2.25.86,4.82,1.36,7.22.7,3.32,1.51,6.63,2.28,9.94.1.47.44,1,.33,1.4-2.44,9.49-.8,19.16-1.34,28.73-.33,6,.43,12.51-1.62,17.9-3.2,8.44-2.91,17-3.8,25.58a17.18,17.18,0,0,1-1.44,5.78c-4.22,8.51-2.86,17.85-4.16,26.78a6,6,0,0,0,.29,1.84Z"/><path d="M623.12,623.64c.51-4,.7-8.17,1.67-12.1.45-1.79,2.2-4.13,3.8-4.57,3.24-.88,2.87-2.85,2.79-5.12-.29-8.08-.51-16.15-.8-24.23-.28-7.87,3.19-14.47,7.11-20.88,3-5,6.29-9.75,9.43-14.64,2.84-4.42,7.11-6.84,11.88-8.54,4.29-1.52,4.77-2.18,2.21-6-2-2.94-4.29-6-7.21-7.87-12.14-7.55-20.45-18.37-27.22-30.56-3-5.42-5.54-11.13-8.26-16.72a6.13,6.13,0,0,1-.88-2.43c-.08-6.44-.06-12.88,0-19.31,0-.44.37-.88.78-1.8,5.5,3.61,9.28,8,11.22,14.26a109.75,109.75,0,0,0,6.06,14.26c.56,1.17,2,1.89,4,3.61.63-4.3,1.64-7.56,1.46-10.75-.39-7-1.31-14-2.15-21-.31-2.55-1.94-2.93-4.37-2.58a7.36,7.36,0,0,1-5.07-1.1c-3.43-2.56-3.19-4.08.4-6.43.42-.27.76-.65,1.16-.94,5.13-3.67,4.89-3.57,2.56-9.88-2.66-7.19-5.88-14.34-5.64-22.26.07-2.34.88-4.66,1.35-7l1.64-.33c2,3.72,4.13,7.38,6,11.15,2.74,5.42,5.32,10.92,8,16.37.33.67,1,1.26,1.11,1.93.65,5.76,5,5.67,9.22,6.22a58.89,58.89,0,0,1,10.5,2.29,7.93,7.93,0,0,1,3.68,3.49c2.42,4,4.49,8.29,6.82,12.38a9.32,9.32,0,0,0,2.25,2c.47-.8,1.28-1.56,1.34-2.38a138.8,138.8,0,0,0,.68-15.26c-.2-5.12,3.12-7.95,6.59-11.3.22,3,.37,6,.68,9,.74,7,1.68,14,2.31,21,.79,8.91,1.31,17.85,2.06,26.77.57,6.81.54,13.81,2.19,20.37a136.33,136.33,0,0,0,8.32,22.6c3.25,7.22,3.63,7,11.53,5.72a2.82,2.82,0,0,1,2,.6c5.78,4.9,11.81,9.55,17.13,14.9a79.06,79.06,0,0,1,11,14.06,20.31,20.31,0,0,1,2.59,9.89c.28,17.7.19,35.4.23,53.1Z"/></g></g></g></g></g></g></svg>