<svg xmlns="http://www.w3.org/2000/svg" viewBox="0 0 747.27 622.87"><g id="Layer_2" data-name="Layer 2"><g id="Layer_2-2" data-name="Layer 2"><g id="Layer_2-3" data-name="Layer 2"><g id="Layer_1-2" data-name="Layer 1-2"><g id="Layer_2-2-2" data-name="Layer 2-2"><g id="Layer_1-2-2" data-name="Layer 1-2-2"><path d="M0,622.79c.81-8.26,5.26-14.54,11.43-20.12,7.08-6.39,13.73-13.2,20.72-19.68C38.64,577,45,570.8,52,565.42c5.31-4.1,11.61-7.12,17.54-10.49,6.2-3.49,10.75-8.07,12.93-14.78,2-6.22,7.08-9.8,13-12.39,2.33-1,4.86-1.62,7.19-2.63,6-2.59,12-5.3,17.91-8a6.84,6.84,0,0,0,2.45-1.56c3.24-3.88,8-4.94,12.57-6.37L184.2,494c3-.93,6.15-1.34,9.17-2.15,1.68-.45,3.21-1.34,4.86-1.87,7.73-2.54,15.43-5.2,23.25-7.5,11.51-3.38,23.14-6.14,34.52-9.77,6.67-2.14,13.22-4.37,20.31-4.65,2.24-.08,4.5,0,6.75.09,3.42.1,6.9.67,10.25.29,8.85-1,17.58-1.47,26.56-.31,5.92.77,12.11-.09,18.15-.58,1-.09,2.53-2,2.66-3.15.88-7.81,2.71-15.52,1.77-23.54-.54-4.57.47-9.3.75-14,.12-2.06.22-4.13.24-6.2.05-8.1-.08-16.2.14-24.29.26-9.38.8-18.75,1.25-28.13a6.32,6.32,0,0,0-3-6c-2.53-1.69-2.4-3.53-.33-5.53a8.28,8.28,0,0,0,2.49-4.23,126.89,126.89,0,0,0,1.64-15.67c.3-11-.61-22,.52-32.91,1.37-13.19.45-26.33,1-39.48.18-4.23.72-8.39,1.09-12.59.27-3.13-1.49-4.86-4.43-5.85-4.18-1.42-4.93-2.54-5-6.88-.05-3.38-.88-7-.1-10.21s1.77-6.26,2.42-9.47c.14-.7,2.55-1.06,4-1.41a15.65,15.65,0,0,1,3.21,0c-.56-2-.58-4-1.55-5.22-3.14-4.09-1.77-7.75.35-11.49,6.32.46,10.86,4.44,10.63,9.3a4.62,4.62,0,0,1-1.39,2.92c-1.58,1.47-1.22,2.88.47,3.25,4,.9,6,3.85,8.25,6.48,1.69,2,3.09,2.22,4.78.33,3.7-4.14,7.28-8.37,11-12.51,2.3-2.54,4.65-5.07,7.17-7.43,3.13-2.95,5.58-6.12,6.59-10.37,1.37-5.75,3.22-11.39,4.87-17.08a3.2,3.2,0,0,0,.25-1.1c-.57-8.71,3.54-16.62,4.58-25.06.2-1.7.17-3.39.34-5.08.34-3.38.13-7,1.23-10.23a186.58,186.58,0,0,1,8.41-20.73c1.77-3.58,4.16-7.08,8.49-8.67a4,4,0,0,0,2.27-2.06c1.38-4.78,5.31-7.28,9.17-9.92,1.77-1.21,3.58-2.31,5.31-3.52a3.47,3.47,0,0,0,1.28-1.46c1-2.75-1.4-9-3.82-10.72a11.62,11.62,0,0,1-3.65-3.6c-3.9-7.49-6.87-15.22-6.37-23.84A10.14,10.14,0,0,0,425,43.06c-1.5-2.08-1.84-5.08-2.21-7.68A3.34,3.34,0,0,1,425,32.84c2.77,0,2.71-1.69,2.66-3.38a24.18,24.18,0,0,1,5.59-16.07c2.85-3.49,5.53-7.33,10.7-8.26.89-.15,1.65-1.24,2.31-2a7.88,7.88,0,0,1,7.47-3c4.08.55,8.36.39,12.24,1.54A25.49,25.49,0,0,1,475,6.85c2.25,2,3.6,4.88,5.31,7.38,3.65,5.24,4.22,11.09,3.43,17.11-.41,3.18-.33,6.14,1.32,9,1.82,3.19.15,6.25-.76,9.24a24.21,24.21,0,0,1-2.58,5.29,36.85,36.85,0,0,1-3,3.75c3.05-1.54,6.28-2.29,8-4.23,2.51-2.93,5.75-2.93,8.74-3,7.77-.22,15.59-.11,23.35.42,3.54.24,7,1.82,10.47,2.7,6.29,1.59,12.65,2.93,18.89,4.72,6.57,1.87,11.81,5.44,13.72,12.18,1.66,5.92,3,11.84,4.7,17.76a43.32,43.32,0,0,0,2.61,6.58,32.66,32.66,0,0,1,2.92,15.68c-.16,2.82-.06,5.12,3.19,6.52,1.61.69,2.71,2.41,4.08,3.63s2.66,1.11,3.81-.27c.56-.66,1-1.38,1.66-2,3.74-3.7,9.23-4,14-1.21,1.19.71,3,.36,4.43.8,5.26,1.61,6.79,6.48,9.49,10.29,1.1,1.54,1.68,3.39,2.66,5,3.59,6,1.42,12.12-5.09,14.87-1.2.51-2.08,1.91-2.87,3-1.54,2.26-2.66,4.78-4.43,6.89-3.27,4.05-2.27,8.55-2.09,13,.39,9.63,1.77,19.25.31,28.91-.29,2,.31,4.13.17,6.18q-.88,12.69-2,25.37A108.7,108.7,0,0,1,598,244.88c-1,4.76-4.32,7.66-9.22,8.92a10.78,10.78,0,0,0-2.49.79c-4.6,2.54-8.85,5.76-13.79,7.44-7.08,2.46-10.86,8.84-17.18,12-3.39,1.69-7,3-10.34,4.7-4.43,2.23-9.32,2.58-14.1,3.45-.54.11-1.36.66-1.41,1.07a67,67,0,0,0-.79,8.36c0,4.75-2.07,8.73-4.72,12.54q-8.46,12.21-17,24.43a6.28,6.28,0,0,1-1.41,1.8c-4.76,3.06-4.92,8.31-6.7,12.77-.18.44.39,1.34.88,1.8,5.68,5.46,11.42,10.86,17.12,16.3,2.81,2.69,3,6.33.2,10.36a2.73,2.73,0,0,0-.13,3.47c2.73,4.88,5.1,9.93,7.84,14.79,1.16,2,3.24,3.6,4.32,5.65,2.76,5.21,5.22,10.55,7.73,15.86,4.27,9,8.47,18,12.71,27.07a47.8,47.8,0,0,1,4.28,13.34,69.34,69.34,0,0,0,6.73,21.39,11.56,11.56,0,0,0,7.35,6.41c8,2.85,15.58,6.77,23.25,10.45a96.54,96.54,0,0,1,10.62,5.92c5.53,3.53,10.87,7.34,16.3,11,3.78,2.54,8,4.67,11.3,7.72,4.35,4.05,9.32,5.33,15,5.22,1.47,0,3,.2,4.42.15,7.84-.31,13.28,4.83,19.48,8,3.64,1.86,7,4.23,10.49,6.35s6.54,4.23,7.73,8.14A6.61,6.61,0,0,0,687.9,545c3.81,4.15,7.78,8.17,11.51,12.4A46.42,46.42,0,0,1,705,565c3.54,6.22,9,10.41,15,14,4.69,2.76,8.24,6.34,10.18,11.33a91.14,91.14,0,0,0,10.62,19.84c2.72,3.86,4.33,8.46,6.45,12.69ZM423.4,466.56l.06.34a45.23,45.23,0,0,0,6.79,0q16.94-2.53,33.78-5.47a3,3,0,0,0,1.87-2.26c0-2.43-.42-4.85-.62-7.29-.73-9-1.42-18-2.16-27a23.61,23.61,0,0,0-.64-4.73c-2.37-8-4.92-16-7.28-24-.77-2.62-.89-5.4-1.77-8-.51-1.5-1.54-3.48-2.86-4a112.26,112.26,0,0,0-11.86-3.38c-3.68-1-7.41-1.78-11.06-2.85-2.79-.85-3.7-2.79-3.79-5.65-.18-5.15-1-10.27-1.46-15.41a49.56,49.56,0,0,1-.49-7.3c.59-10.87,1.77-21.73,1.92-32.61.13-8.55-.89-17.11,1.2-25.58.24-.95-.48-3-1-3.08-2.07-.39-2.22-1.82-2.28-3.15a33.67,33.67,0,0,1,.29-7c.78-4.53,2.05-9,2.79-13.53,1.39-8.53,2.49-17.1,3.84-25.64a10.82,10.82,0,0,0-4.83-10.42,2.15,2.15,0,0,0-1.35-.42c-3,.9-5.55-.26-8.16-1.51-2.2-1-5.07.16-5.66,1.89a18.16,18.16,0,0,1-2.05,4.23c-2.17,3.25-4.3,6.36-3.94,10.59.25,3.06-.39,6.19-.76,9.31-.43,3.44-1,6.86-1.52,10.29q-1.17,7.5-2.39,15c-.78,4.81-1.7,9.6-2.33,14.42-.89,6.53-1.41,13.09-2.21,19.63-.62,5.07-1.45,10.15-2.1,15.26-.46,3.53-.51,7.11-1.17,10.59-1.24,6.44-3,12.77-4.14,19.23s-1.5,12.75-2.37,19.12c-.63,4.67-1.67,9.3-2.26,13.95-1.54,12-2.81,24.08-4.43,36.09-1.68,12.69-3.6,25.37-5.44,38.06-.31,2.16.25,3.29,2.87,3.44a62.65,62.65,0,0,1,9.54,1.37,12.69,12.69,0,0,0,8.54-1.19,10.12,10.12,0,0,1,4.63-.57c3,.19,6,1.08,9,.93C411.87,467.93,417.63,467.17,423.4,466.56Zm-77.63-13.83c.27,1.49.88,4.23,1.27,7,.29,2-.89,4.81,3,4.75.18,0,.45.36.54.6,1.38,3.78,4.88,4.77,8.35,5.43,4.8.9,7.86-1.43,8.22-6.1.48-6.15.49-12.34,1.11-18.48.43-4.34,1.52-8.62,2.31-12.93,1.63-8.79,3.55-17.55,4.8-26.37,1.26-8.57,1.77-17.23,2.84-25.83,1.38-11.22,3-22.41,4.43-33.62.65-5.13.76-10.31,1.5-15.42,1-6.85,2.57-13.62,3.49-20.48,1.53-11.39,2.72-22.83,4.08-34.23.54-4.49,1.16-9,1.77-13.45,1-7.44,2-14.86,2.91-22.3.2-1.69-.84-2.23-2.43-1.53-2.45,1.1-4.81,2.41-7.32,3.39-4.16,1.63-8.36,3.2-12.63,4.55-2.41.76-5.31.5-7.42,1.63a17.51,17.51,0,0,1-9.52,2.24c-2.31-.14-3.15,1.19-3.2,3.17q-.47,20.25-.88,40.48c0,1-.08,2.06-.18,3.1-.73,7.82-1.59,15.63-2.13,23.47-.29,4,0,8.06,0,12.09,0,1.4-.23,2.81-.23,4.23,0,5-.11,10,.26,14.93s.89,9.78-1.23,14.49a1.75,1.75,0,0,0,0,.56c-.36,11-.74,22-1.08,33-.28,9.3-.37,18.6-.81,27.84C347.2,436.43,346.44,443.91,345.77,452.73Zm155.7-32.07a15.78,15.78,0,0,0-.38,3.56c.39,3.46.79,6.93,1.51,10.34,2.06,9.71,3.7,19.45,3.34,29.42-.14,3.75-.57,7.5-.67,11.26,0,1,.38,2.63,1.09,2.95,3,1.31,6.14,2.25,9.39.89,2-.84,3.78-1.88,5.78-2.88-4.74-19-12-37.35-20.06-55.54Z"/></g></g></g></g></g></g></svg>